{
    "asset" : {
        "generator" : "Khronos glTF Blender I/O v1.4.40",
        "version" : "2.0"
    },
    "scene" : 0,
    "scenes" : [
        {
            "name" : "Scene",
            "nodes" : [
                19
            ]
        }
    ],
    "nodes" : [
        {
            "name" : "hand.L",
            "rotation" : [
                -1.249000902703301e-16,
                3.5527141023169746e-15,
                -1.819797347616661e-22,
                1
            ],
            "translation" : [
                1.1920928955078125e-07,
                0.7771844863891602,
                -7.091990994467778e-09
            ]
        },
        {
            "children" : [
                0
            ],
            "name" : "forearm.L",
            "rotation" : [
                -3.2856745102449736e-10,
                4.4039957458608114e-08,
                -2.6301008286956466e-15,
                1
            ],
            "translation" : [
                1.232135531381573e-07,
                0.7556617259979248,
                -8.04705990731236e-09
            ]
        },
        {
            "children" : [
                1
            ],
            "name" : "upper_arm.L",
            "rotation" : [
                -0.5,
                -0.5,
                0.5,
                0.5
            ],
            "translation" : [
                -0.030742282047867775,
                0.7530081272125244,
                -9.515599685983034e-07
            ]
        },
        {
            "children" : [
                2
            ],
            "name" : "Shoulder.L",
            "rotation" : [
                -0.5,
                -0.5,
                -0.5,
                0.5000000596046448
            ],
            "scale" : [
                0.9999998807907104,
                0.9999997615814209,
                1
            ],
            "translation" : [
                -1.1102227599273605e-16,
                0.6549704074859619,
                0
            ]
        },
        {
            "name" : "hand.R",
            "rotation" : [
                -1.249000902703301e-16,
                -3.5527141023169746e-15,
                1.819797347616661e-22,
                1
            ],
            "translation" : [
                -1.1920928955078125e-07,
                0.7771844863891602,
                -7.091990994467778e-09
            ]
        },
        {
            "children" : [
                4
            ],
            "name" : "forearm.R",
            "rotation" : [
                -3.2856745102449736e-10,
                -4.4039957458608114e-08,
                2.6301008286956466e-15,
                1
            ],
            "translation" : [
                -1.232135531381573e-07,
                0.7556617259979248,
                -8.04705990731236e-09
            ]
        },
        {
            "children" : [
                5
            ],
            "name" : "upper_arm.R",
            "rotation" : [
                -0.5,
                0.5,
                -0.5,
                0.5
            ],
            "translation" : [
                0.030742282047867775,
                0.7530081272125244,
                -9.515599685983034e-07
            ]
        },
        {
            "children" : [
                6
            ],
            "name" : "Shoulder.R",
            "rotation" : [
                -0.5,
                0.5,
                0.5,
                0.5000000596046448
            ],
            "scale" : [
                0.9999998807907104,
                0.9999997615814209,
                1
            ],
            "translation" : [
                1.1102227599273605e-16,
                0.6549704074859619,
                0
            ]
        },
        {
            "children" : [
                3,
                7
            ],
            "name" : "spine.003",
            "scale" : [
                1,
                0.9999999403953552,
                1
            ],
            "translation" : [
                0,
                0.795426607131958,
                9.313225746154785e-10
            ]
        },
        {
            "name" : "head",
            "translation" : [
                -2.8484732302023086e-22,
                1.6118457317352295,
                0.07519872486591339
            ]
        },
        {
            "children" : [
                8,
                9
            ],
            "name" : "spine.002",
            "rotation" : [
                -1.3981181767874773e-09,
                0,
                0,
                1
            ],
            "translation" : [
                0,
                0.33306288719177246,
                -2.1822899043399957e-10
            ]
        },
        {
            "name" : "toe.L",
            "rotation" : [
                -3.090862676913275e-08,
                -0.7071068286895752,
                0.7071068286895752,
                3.090862321641907e-08
            ],
            "translation" : [
                0,
                0.9801427721977234,
                0
            ]
        },
        {
            "children" : [
                11
            ],
            "name" : "shin.L",
            "rotation" : [
                1.26416110912686e-09,
                4.371138828673793e-08,
                6.111369184219379e-17,
                1
            ],
            "translation" : [
                6.434190402693218e-10,
                1.0494645833969116,
                2.4898438866216566e-10
            ]
        },
        {
            "children" : [
                12
            ],
            "name" : "thigh.L",
            "rotation" : [
                1,
                0,
                -4.371138828673793e-08,
                2.6622792859143374e-09
            ],
            "translation" : [
                0.3443300127983093,
                0.04517006874084473,
                0.007359858136624098
            ]
        },
        {
            "name" : "toe.R",
            "rotation" : [
                -3.090862676913275e-08,
                -0.7071068286895752,
                0.7071068286895752,
                3.090862321641907e-08
            ],
            "translation" : [
                0,
                0.9801459908485413,
                0
            ]
        },
        {
            "children" : [
                14
            ],
            "name" : "shin.R",
            "rotation" : [
                1.2641728774909211e-09,
                4.371138828673793e-08,
                6.111369184219379e-17,
                1
            ],
            "translation" : [
                6.434190402693218e-10,
                1.0494599342346191,
                -8.244604998708382e-11
            ]
        },
        {
            "children" : [
                15
            ],
            "name" : "thigh.R",
            "rotation" : [
                1,
                0,
                -4.371138828673793e-08,
                2.6622910542783984e-09
            ],
            "translation" : [
                -0.3443300127983093,
                0.04516863822937012,
                0.007359858136624098
            ]
        },
        {
            "children" : [
                10,
                13,
                16
            ],
            "name" : "spine.001",
            "rotation" : [
                6.990590883937386e-10,
                0,
                0,
                1
            ],
            "translation" : [
                0,
                2.0764212608337402,
                -0.01471971720457077
            ]
        },
        {
            "mesh" : 0,
            "name" : "Cube.009",
            "skin" : 0
        },
        {
            "children" : [
                18,
                17
            ],
            "name" : "metarig"
        }
    ],
    "meshes" : [
        {
            "name" : "Cube.013",
            "primitives" : [
                {
                    "attributes" : {
                        "POSITION" : 0,
                        "NORMAL" : 1,
                        "TEXCOORD_0" : 2,
                        "JOINTS_0" : 3,
                        "WEIGHTS_0" : 4
                    },
                    "indices" : 5
                }
            ]
        }
    ],
    "skins" : [
        {
            "inverseBindMatrices" : 6,
            "joints" : [
                17,
                10,
                8,
                3,
                2,
                1,
                0,
                7,
                6,
                5,
                4,
                9,
                13,
                12,
                11,
                16,
                15,
                14
            ],
            "name" : "metarig"
        }
    ],
    "accessors" : [
        {
            "bufferView" : 0,
            "componentType" : 5126,
            "count" : 384,
            "max" : [
                0.9339143633842468,
                4.665228843688965,
                0.5352573394775391
            ],
            "min" : [
                -0.9339142441749573,
                -0.0341365709900856,
                -0.29522988200187683
            ],
            "type" : "VEC3"
        },
        {
            "bufferView" : 1,
            "componentType" : 5126,
            "count" : 384,
            "type" : "VEC3"
        },
        {
            "bufferView" : 2,
            "componentType" : 5126,
            "count" : 384,
            "type" : "VEC2"
        },
        {
            "bufferView" : 3,
            "componentType" : 5121,
            "count" : 384,
            "type" : "VEC4"
        },
        {
            "bufferView" : 4,
            "componentType" : 5126,
            "count" : 384,
            "type" : "VEC4"
        },
        {
            "bufferView" : 5,
            "componentType" : 5123,
            "count" : 576,
            "type" : "SCALAR"
        },
        {
            "bufferView" : 6,
            "componentType" : 5126,
            "count" : 18,
            "type" : "MAT4"
        }
    ],
    "bufferViews" : [
        {
            "buffer" : 0,
            "byteLength" : 4608,
            "byteOffset" : 0
        },
        {
            "buffer" : 0,
            "byteLength" : 4608,
            "byteOffset" : 4608
        },
        {
            "buffer" : 0,
            "byteLength" : 3072,
            "byteOffset" : 9216
        },
        {
            "buffer" : 0,
            "byteLength" : 1536,
            "byteOffset" : 12288
        },
        {
            "buffer" : 0,
            "byteLength" : 6144,
            "byteOffset" : 13824
        },
        {
            "buffer" : 0,
            "byteLength" : 1152,
            "byteOffset" : 19968
        },
        {
            "buffer" : 0,
            "byteLength" : 1152,
            "byteOffset" : 21120
        }
    ],
    "buffers" : [
        {
            "byteLength" : 22272,
            "uri" : "data:application/octet-stream;base64,"
        }
    ]
}
