{
    "asset" : {
        "generator" : "Khronos glTF Blender I/O v1.4.40",
        "version" : "2.0"
    },
    "scene" : 0,
    "scenes" : [
        {
            "name" : "Scene",
            "nodes" : [
                0
            ]
        }
    ],
    "nodes" : [
        {
            "mesh" : 0,
            "name" : "Silo",
            "scale" : [
                1,
                0.39891695976257324,
                1
            ]
        }
    ],
    "materials" : [
        {
            "doubleSided" : true,
            "name" : "Material.006",
            "pbrMetallicRoughness" : {
                "baseColorFactor" : [
                    0.27405914664268494,
                    0.27405914664268494,
                    0.27405914664268494,
                    1
                ],
                "metallicFactor" : 0.7863636612892151,
                "roughnessFactor" : 0.3590908944606781
            }
        },
        {
            "doubleSided" : true,
            "name" : "Material.010",
            "pbrMetallicRoughness" : {
                "baseColorFactor" : [
                    0.261709600687027,
                    0.261709600687027,
                    0.261709600687027,
                    1
                ],
                "metallicFactor" : 0,
                "roughnessFactor" : 0.5
            }
        },
        {
            "doubleSided" : true,
            "name" : "Material.002",
            "pbrMetallicRoughness" : {
                "baseColorFactor" : [
                    0.3477415442466736,
                    0.05263563618063927,
                    0.030385011807084084,
                    1
                ],
                "metallicFactor" : 0,
                "roughnessFactor" : 0.5
            }
        },
        {
            "doubleSided" : true,
            "name" : "Material.011",
            "pbrMetallicRoughness" : {
                "baseColorFactor" : [
                    0.12196438759565353,
                    0.024392448365688324,
                    0.027546539902687073,
                    1
                ],
                "metallicFactor" : 0,
                "roughnessFactor" : 0.5
            }
        }
    ],
    "meshes" : [
        {
            "name" : "Cylinder.002",
            "primitives" : [
                {
                    "attributes" : {
                        "POSITION" : 0,
                        "NORMAL" : 1,
                        "TEXCOORD_0" : 2
                    },
                    "indices" : 3,
                    "material" : 0
                },
                {
                    "attributes" : {
                        "POSITION" : 4,
                        "NORMAL" : 5,
                        "TEXCOORD_0" : 6
                    },
                    "indices" : 7,
                    "material" : 1
                },
                {
                    "attributes" : {
                        "POSITION" : 8,
                        "NORMAL" : 9,
                        "TEXCOORD_0" : 10
                    },
                    "indices" : 11,
                    "material" : 2
                },
                {
                    "attributes" : {
                        "POSITION" : 12,
                        "NORMAL" : 13,
                        "TEXCOORD_0" : 14
                    },
                    "indices" : 15,
                    "material" : 3
                }
            ]
        }
    ],
    "accessors" : [
        {
            "bufferView" : 0,
            "componentType" : 5126,
            "count" : 3265,
            "max" : [
                9.349345207214355,
                3.8253774642944336,
                11.976282119750977
            ],
            "min" : [
                -11.968252182006836,
                -24.224559783935547,
                -9.349345207214355
            ],
            "type" : "VEC3"
        },
        {
            "bufferView" : 1,
            "componentType" : 5126,
            "count" : 3265,
            "type" : "VEC3"
        },
        {
            "bufferView" : 2,
            "componentType" : 5126,
            "count" : 3265,
            "type" : "VEC2"
        },
        {
            "bufferView" : 3,
            "componentType" : 5123,
            "count" : 7068,
            "type" : "SCALAR"
        },
        {
            "bufferView" : 4,
            "componentType" : 5126,
            "count" : 24,
            "max" : [
                14.3347749710083,
                -23.75540542602539,
                14.3347749710083
            ],
            "min" : [
                -14.3347749710083,
                -95.62399291992188,
                -14.3347749710083
            ],
            "type" : "VEC3"
        },
        {
            "bufferView" : 5,
            "componentType" : 5126,
            "count" : 24,
            "type" : "VEC3"
        },
        {
            "bufferView" : 6,
            "componentType" : 5126,
            "count" : 24,
            "type" : "VEC2"
        },
        {
            "bufferView" : 7,
            "componentType" : 5123,
            "count" : 36,
            "type" : "SCALAR"
        },
        {
            "bufferView" : 8,
            "componentType" : 5126,
            "count" : 260,
            "max" : [
                9.349345207214355,
                -3.6732115745544434,
                9.349345207214355
            ],
            "min" : [
                -9.349345207214355,
                -8.827653884887695,
                -9.349345207214355
            ],
            "type" : "VEC3"
        },
        {
            "bufferView" : 9,
            "componentType" : 5126,
            "count" : 260,
            "type" : "VEC3"
        },
        {
            "bufferView" : 10,
            "componentType" : 5126,
            "count" : 260,
            "type" : "VEC2"
        },
        {
            "bufferView" : 11,
            "componentType" : 5123,
            "count" : 768,
            "type" : "SCALAR"
        },
        {
            "bufferView" : 12,
            "componentType" : 5126,
            "count" : 130,
            "max" : [
                9.349345207214355,
                -5.391359806060791,
                9.349345207214355
            ],
            "min" : [
                -9.349345207214355,
                -7.109507083892822,
                -9.349345207214355
            ],
            "type" : "VEC3"
        },
        {
            "bufferView" : 13,
            "componentType" : 5126,
            "count" : 130,
            "type" : "VEC3"
        },
        {
            "bufferView" : 14,
            "componentType" : 5126,
            "count" : 130,
            "type" : "VEC2"
        },
        {
            "bufferView" : 15,
            "componentType" : 5123,
            "count" : 384,
            "type" : "SCALAR"
        }
    ],
    "bufferViews" : [
        {
            "buffer" : 0,
            "byteLength" : 39180,
            "byteOffset" : 0
        },
        {
            "buffer" : 0,
            "byteLength" : 39180,
            "byteOffset" : 39180
        },
        {
            "buffer" : 0,
            "byteLength" : 26120,
            "byteOffset" : 78360
        },
        {
            "buffer" : 0,
            "byteLength" : 14136,
            "byteOffset" : 104480
        },
        {
            "buffer" : 0,
            "byteLength" : 288,
            "byteOffset" : 118616
        },
        {
            "buffer" : 0,
            "byteLength" : 288,
            "byteOffset" : 118904
        },
        {
            "buffer" : 0,
            "byteLength" : 192,
            "byteOffset" : 119192
        },
        {
            "buffer" : 0,
            "byteLength" : 72,
            "byteOffset" : 119384
        },
        {
            "buffer" : 0,
            "byteLength" : 3120,
            "byteOffset" : 119456
        },
        {
            "buffer" : 0,
            "byteLength" : 3120,
            "byteOffset" : 122576
        },
        {
            "buffer" : 0,
            "byteLength" : 2080,
            "byteOffset" : 125696
        },
        {
            "buffer" : 0,
            "byteLength" : 1536,
            "byteOffset" : 127776
        },
        {
            "buffer" : 0,
            "byteLength" : 1560,
            "byteOffset" : 129312
        },
        {
            "buffer" : 0,
            "byteLength" : 1560,
            "byteOffset" : 130872
        },
        {
            "buffer" : 0,
            "byteLength" : 1040,
            "byteOffset" : 132432
        },
        {
            "buffer" : 0,
            "byteLength" : 768,
            "byteOffset" : 133472
        }
    ],
    "buffers" : [
        {
            "byteLength" : 134240,
            "uri" : "data:application/octet-stream;base64,"
        }
    ]
}
