{
    "asset" : {
        "generator" : "Khronos glTF Blender I/O v1.4.40",
        "version" : "2.0"
    },
    "scene" : 0,
    "scenes" : [
        {
            "name" : "Scene",
            "nodes" : [
                0
            ]
        }
    ],
    "nodes" : [
        {
            "mesh" : 0,
            "name" : "Barrier"
        }
    ],
    "materials" : [
        {
            "doubleSided" : true,
            "name" : "Material.010",
            "pbrMetallicRoughness" : {
                "baseColorFactor" : [
                    0.261709600687027,
                    0.261709600687027,
                    0.261709600687027,
                    1
                ],
                "metallicFactor" : 0,
                "roughnessFactor" : 0.5
            }
        }
    ],
    "meshes" : [
        {
            "name" : "Cube.003",
            "primitives" : [
                {
                    "attributes" : {
                        "POSITION" : 0,
                        "NORMAL" : 1,
                        "TEXCOORD_0" : 2
                    },
                    "indices" : 3,
                    "material" : 0
                }
            ]
        }
    ],
    "accessors" : [
        {
            "bufferView" : 0,
            "componentType" : 5126,
            "count" : 146,
            "max" : [
                3.2495920658111572,
                2.707000732421875,
                1
            ],
            "min" : [
                -3.2504079341888428,
                -5.960464477539063e-08,
                -1
            ],
            "type" : "VEC3"
        },
        {
            "bufferView" : 1,
            "componentType" : 5126,
            "count" : 146,
            "type" : "VEC3"
        },
        {
            "bufferView" : 2,
            "componentType" : 5126,
            "count" : 146,
            "type" : "VEC2"
        },
        {
            "bufferView" : 3,
            "componentType" : 5123,
            "count" : 252,
            "type" : "SCALAR"
        }
    ],
    "bufferViews" : [
        {
            "buffer" : 0,
            "byteLength" : 1752,
            "byteOffset" : 0
        },
        {
            "buffer" : 0,
            "byteLength" : 1752,
            "byteOffset" : 1752
        },
        {
            "buffer" : 0,
            "byteLength" : 1168,
            "byteOffset" : 3504
        },
        {
            "buffer" : 0,
            "byteLength" : 504,
            "byteOffset" : 4672
        }
    ],
    "buffers" : [
        {
            "byteLength" : 5176,
            "uri" : "data:application/octet-stream;base64,"
        }
    ]
}
