{
    "asset" : {
        "generator" : "Khronos glTF Blender I/O v1.4.40",
        "version" : "2.0"
    },
    "scene" : 0,
    "scenes" : [
        {
            "name" : "Scene",
            "nodes" : [
                3
            ]
        }
    ],
    "nodes" : [
        {
            "name" : "Group.001",
            "rotation" : [
                -0.7071068286895752,
                -3.512470314603888e-08,
                -2.6692539734085585e-08,
                0.7071067094802856
            ],
            "translation" : [
                2.6645352591003757e-15,
                1,
                0
            ]
        },
        {
            "children" : [
                0
            ],
            "name" : "Group",
            "rotation" : [
                -1.5454313384566376e-08,
                -0.7071067094802856,
                0.7071068286895752,
                4.636292771920125e-08
            ],
            "translation" : [
                4.371138473402425e-08,
                0.09935011714696884,
                1
            ]
        },
        {
            "mesh" : 0,
            "name" : "Work light",
            "skin" : 0
        },
        {
            "children" : [
                2,
                1
            ],
            "name" : "Light"
        }
    ],
    "meshes" : [
        {
            "name" : "Cube.017",
            "primitives" : [
                {
                    "attributes" : {
                        "POSITION" : 0,
                        "NORMAL" : 1,
                        "TEXCOORD_0" : 2,
                        "JOINTS_0" : 3,
                        "WEIGHTS_0" : 4
                    },
                    "indices" : 5
                }
            ]
        }
    ],
    "skins" : [
        {
            "inverseBindMatrices" : 6,
            "joints" : [
                1,
                0
            ],
            "name" : "Light"
        }
    ],
    "accessors" : [
        {
            "bufferView" : 0,
            "componentType" : 5126,
            "count" : 195,
            "max" : [
                0.9002229571342468,
                1.3361740112304688,
                1.100937008857727
            ],
            "min" : [
                -0.900238037109375,
                0,
                -0.09935393929481506
            ],
            "type" : "VEC3"
        },
        {
            "bufferView" : 1,
            "componentType" : 5126,
            "count" : 195,
            "type" : "VEC3"
        },
        {
            "bufferView" : 2,
            "componentType" : 5126,
            "count" : 195,
            "type" : "VEC2"
        },
        {
            "bufferView" : 3,
            "componentType" : 5121,
            "count" : 195,
            "type" : "VEC4"
        },
        {
            "bufferView" : 4,
            "componentType" : 5126,
            "count" : 195,
            "type" : "VEC4"
        },
        {
            "bufferView" : 5,
            "componentType" : 5123,
            "count" : 300,
            "type" : "SCALAR"
        },
        {
            "bufferView" : 6,
            "componentType" : 5126,
            "count" : 2,
            "type" : "MAT4"
        }
    ],
    "bufferViews" : [
        {
            "buffer" : 0,
            "byteLength" : 2340,
            "byteOffset" : 0
        },
        {
            "buffer" : 0,
            "byteLength" : 2340,
            "byteOffset" : 2340
        },
        {
            "buffer" : 0,
            "byteLength" : 1560,
            "byteOffset" : 4680
        },
        {
            "buffer" : 0,
            "byteLength" : 780,
            "byteOffset" : 6240
        },
        {
            "buffer" : 0,
            "byteLength" : 3120,
            "byteOffset" : 7020
        },
        {
            "buffer" : 0,
            "byteLength" : 600,
            "byteOffset" : 10140
        },
        {
            "buffer" : 0,
            "byteLength" : 128,
            "byteOffset" : 10740
        }
    ],
    "buffers" : [
        {
            "byteLength" : 10868,
            "uri" : "data:application/octet-stream;base64,"
        }
    ]
}
